<svg width="256" height="120" viewBox="0 0 256 120" fill="none" xmlns="http://www.w3.org/2000/svg">
<path d="M14.7992 21.6999C17.2992 20.7999 19.4992 20.0999 21.2992 19.6999C23.1992 19.2999 24.7992 19.0999 26.1992 19.0999C28.3992 19.0999 30.0992 19.6998 31.2992 20.7998C32.4992 21.8998 33.3992 23.2999 33.9992 25.0999C34.5992 26.8999 34.9992 29.4998 34.3992 31.3998C33.7992 33.2998 32.2992 34.6999 29.9992 35.5999C27.6992 36.4999 27.8992 36.2998 26.7992 36.4998C25.5992 36.6998 24.3992 36.8998 23.0992 36.9998L22.3992 35.1999C23.8992 36.4999 25.2992 38.0998 26.6992 39.7998C28.0992 41.4998 29.3992 43.3998 30.5992 45.2998C31.7992 47.1998 32.8992 48.9999 33.7992 50.6999C34.6992 52.3999 35.3992 53.8999 35.8992 55.1999C37.0992 58.4999 37.3992 61.2999 36.6992 63.5999C35.9992 65.8999 34.0992 67.5998 30.9992 68.7998C27.8992 69.9998 25.7992 69.8998 23.7992 68.7998C21.7992 67.7998 20.1992 65.6998 18.9992 62.4998C17.7992 59.2998 17.8992 59.0998 17.4992 56.9998C17.0992 54.8998 16.7992 52.6998 16.5992 50.3998C16.3992 48.0998 16.2992 45.7999 16.2992 43.5999C16.2992 41.3999 16.4992 39.3999 16.6992 37.5999L17.4992 39.0999C16.9992 39.4999 16.3992 39.9998 15.5992 40.4998C14.7992 40.9998 14.0992 41.4998 13.2992 41.8998C12.4992 42.2998 11.7992 42.6998 11.1992 42.8998C8.69921 43.8998 6.69922 43.8999 5.09922 43.0999C3.59922 42.2999 2.39922 40.7999 1.59922 38.6999C0.799217 36.5999 0.699204 34.9999 0.899204 33.1999C1.0992 31.3999 1.99921 29.7999 3.49921 28.1999C4.69921 26.8999 6.19922 25.7999 8.09922 24.5999C9.99922 23.4999 12.1992 22.3998 14.7992 21.4998V21.6999Z" fill="#F7E3CF"/>
<path d="M38.4983 35.7998C36.6983 30.8998 35.8983 27.1998 36.1983 24.5998C36.4983 21.9998 37.6983 20.2998 39.7983 19.4998C41.8983 18.6998 42.3983 18.9998 43.4983 19.5998C44.5983 20.1998 45.5983 21.0998 46.4983 22.2998C47.3983 23.4998 48.0983 24.6998 48.5983 26.0998H48.1983C48.0983 23.5998 48.3983 21.1998 49.1983 18.9998C49.9983 16.7998 51.3983 15.2998 53.4983 14.5998C55.5983 13.8998 58.2983 13.9998 60.2983 15.6998C62.2983 17.3998 63.8983 19.7998 65.0983 23.0998C66.2983 26.3998 67.1983 30.4998 66.5983 32.6998C65.9983 34.8998 64.5983 36.3998 62.3983 37.1998C60.1983 37.9998 59.5983 37.6998 58.4983 36.9998C57.3983 36.2998 56.4983 34.7998 55.7983 32.5998C55.2983 30.9998 54.7983 29.9998 54.3983 29.3998C53.9983 28.8998 53.5983 28.6998 53.1983 28.7998C52.6983 28.9998 52.3983 29.4998 52.3983 30.2998C52.3983 31.0998 52.6983 32.0998 53.0983 33.2998C53.4983 34.4998 53.8983 35.1998 54.5983 36.3998C55.2983 37.5998 56.0983 38.8998 56.8983 40.3998C57.6983 41.7998 58.4983 43.2998 59.2983 44.6998C60.0983 46.0998 60.6983 47.4998 61.1983 48.6998C62.1983 51.2998 62.2983 53.3998 61.4983 54.8998C60.6983 56.3998 59.2983 57.5998 57.0983 58.3998C54.8983 59.1998 53.1983 59.1998 51.5983 58.5998C49.8983 57.9998 48.3983 56.4998 46.9983 54.1998C46.1983 52.7998 45.1983 50.9998 44.0983 48.7998C42.9983 46.5998 41.8983 44.3998 40.8983 41.9998C39.8983 39.5998 38.9983 37.4998 38.2983 35.5998L38.4983 35.7998Z" fill="#F7E3CF"/>
<path d="M89.7999 60.4999C86.5999 61.6999 84.2999 60.4999 82.8999 56.9999C81.4999 53.4999 82.0999 53.4999 82.1999 51.2999C82.2999 48.9999 82.7999 46.7 83.4999 44.2C84.2999 41.7 85.2999 39.3 86.5999 37.1L86.8999 38.1C80.8999 35.6 76.1999 32.7999 72.4999 29.8999C68.8999 26.9999 66.2999 23.5999 64.8999 19.7999C63.4999 15.9999 63.9999 15.7 64.5999 14.1C65.2999 12.5 66.5999 11.3 68.4999 10.6C71.3999 9.49995 74.4999 10.2999 77.8999 12.9999C81.1999 15.6999 84.5999 20.0999 87.9999 26.2999H88.2999C86.3999 18.6999 85.6999 12.8999 86.1999 8.89994C86.6999 4.89994 88.1999 2.39995 90.5999 1.49995C92.9999 0.599945 93.6999 0.999933 94.9999 1.79993C96.2999 2.59993 97.2999 4.09996 98.0999 6.19996C98.8999 8.29996 99.0999 9.29994 99.3999 11.3999C99.7999 13.4999 99.9999 15.7999 100.2 18.2999C100.3 20.8999 100.4 23.5999 100.2 26.4999C100.2 29.3999 99.8999 32.3 99.4999 35.2C98.4999 43.2 97.1999 49.2 95.6999 53.2C94.1999 57.2 92.1999 59.7 89.6999 60.7L89.7999 60.4999Z" fill="#F7E3CF"/>
<path d="M113.4 18.5999C115.1 18.5999 116.6 18.9999 117.9 19.7999C119.3 20.5999 120.6 22.1 121.9 24.2C123.2 26.3 124.5 29.1999 125.9 32.7999C127.2 36.4999 128.7 41.0999 130.3 46.7999H130.6C130.3 45.1999 130.1 43.5 129.8 41.7C129.6 39.9 129.3 38.0999 129.2 36.2999C129 34.4999 128.9 32.8 128.8 31.2C128.7 29.6 128.6 28.2999 128.6 27.0999C128.6 23.4999 129.2 20.8 130.3 19.2C131.5 17.5 133.1 16.7 135.3 16.7C137.5 16.7 138.2 17.0999 139.2 17.8999C140.2 18.6999 141 19.8999 141.7 21.3999C142.8 23.7999 143.5 26.9999 144 31.0999C144.4 35.1999 144.6 39.8999 144.6 45.2999C144.6 50.6999 144.4 53.8999 144 56.8999C143.6 59.8999 142.8 62.0999 141.7 63.5999C140.6 64.9999 139 65.7999 137 65.7999C135 65.7999 134.4 65.6 133.2 65.2C132 64.8 130.9 63.9 129.8 62.7C128.7 61.5 127.5 59.6999 126.3 57.3999C125.1 55.0999 123.8 52.0999 122.5 48.2999C121.2 44.4999 119.7 39.8999 118 34.3999H117.7C118.1 36.1999 118.5 38.3 118.8 40.7C119.1 43.1 119.4 45.4999 119.6 47.9999C119.8 50.4999 119.9 52.6999 119.9 54.7999C119.9 59.1999 119.2 62.3999 117.9 64.2999C116.6 66.1999 114.6 67.0999 111.8 67.0999C109 67.0999 106.8 66.1 105.5 64.2C104.2 62.2 103.6 59.2 103.6 55.2C103.6 51.2 103.6 50.8 103.8 48.2C103.9 45.6 104.1 42.9 104.3 40.2C104.5 37.4 104.8 34.7999 105.1 32.2999C105.6 27.8999 106.5 24.5999 107.7 22.2999C108.9 19.9999 110.7 18.8999 113.3 18.8999L113.4 18.5999Z" fill="#DAC665"/>
<path d="M164.799 66.5999C161.299 66.5999 158.199 65.7999 155.499 64.1999C152.899 62.5999 150.799 60.2999 149.399 57.3999C147.999 54.3999 147.199 50.8999 147.199 46.7999C147.199 42.6999 147.899 38.7999 149.399 35.5999C150.899 32.3999 152.899 29.8999 155.599 28.0999C158.299 26.2999 161.399 25.3999 164.999 25.3999C168.599 25.3999 172.099 26.2999 174.899 27.9999C177.699 29.6999 179.899 32.0999 181.499 35.1999C183.099 38.2999 183.899 41.8999 183.899 45.9999C183.899 50.0999 183.099 53.8999 181.499 56.8999C179.899 59.9999 177.699 62.2999 174.899 63.9999C172.099 65.6999 168.699 66.4999 164.799 66.4999V66.5999ZM165.799 53.1999C167.099 53.1999 168.199 52.4999 168.999 50.9999C169.799 49.5999 170.199 47.6999 170.199 45.2999C170.199 42.8999 169.799 40.9999 168.999 39.4999C168.199 37.9999 167.099 37.2999 165.799 37.2999C164.499 37.2999 163.299 37.9999 162.499 39.4999C161.699 40.8999 161.299 42.8999 161.299 45.2999C161.299 47.6999 161.699 49.5999 162.499 50.9999C163.299 52.3999 164.399 53.1999 165.799 53.1999Z" fill="#D96B52"/>
<path d="M195.7 25.8999H194.7C194.5 23.8999 194.5 22.0999 194.9 20.2999C195.2 18.4999 196 17.0999 197.1 15.9999C198.2 14.8999 199.8 14.3999 201.8 14.3999C203.8 14.3999 205.4 14.8999 206.4 15.8999C207.3 16.8999 207.8 18.3999 207.8 20.1999C207.8 21.9999 207.3 24.4999 206.2 26.1999H205.3C206.7 25.1999 208.3 24.7999 210 24.7999C211.7 24.7999 213.7 25.2999 215 26.2999C216.3 27.2999 216.9 29.0999 216.9 31.4999C216.9 33.8999 216.2 35.4999 214.7 36.6999C213.2 37.8999 211.4 38.4999 209.3 38.4999C207.2 38.4999 207.8 38.4999 207 38.2999C206.2 38.1999 205.4 37.9999 204.6 37.6999L204.9 36.9999C205.5 38.3999 206 39.9999 206.6 41.7999C207.1 43.5999 207.6 45.3999 208 47.2999C208.4 49.1999 208.8 50.9999 209 52.8999C209.2 54.6999 209.4 56.2999 209.4 57.7999C209.4 60.6999 208.7 62.8999 207.4 64.5999C206.1 66.2999 204 67.0999 201.3 67.0999C198.6 67.0999 198.2 66.7999 197 66.0999C195.9 65.3999 194.9 64.4999 194.3 63.3999C193.6 62.2999 193.1 60.8999 192.8 59.3999C192.5 57.8999 192.3 56.2999 192.3 54.5999C192.3 52.8999 192.4 51.3999 192.7 49.4999C192.9 47.5999 193.3 45.5999 193.8 43.4999C194.3 41.3999 194.9 39.4999 195.5 37.5999L196.5 38.2999C195.2 39.4999 193.6 39.9999 191.6 39.9999C189.6 39.9999 187.6 39.3999 186.4 38.2999C185.2 37.1999 184.5 35.3999 184.5 32.9999C184.5 30.5999 185.2 28.5999 186.5 27.2999C187.8 25.9999 189.7 25.2999 192 25.2999C194.3 25.2999 193.4 25.2999 194 25.4999C194.6 25.6999 195.2 25.7999 195.6 26.0999L195.7 25.8999Z" fill="#DAC665"/>
<path d="M89.6 64.8999C92.2 64.8999 94.5 64.9999 96.4 65.2999C98.3 65.5999 99.9 65.9999 101.2 66.4999C103.3 67.3999 104.6 68.4999 105.3 69.8999C106 71.2999 106.3 72.9999 106.3 74.8999C106.3 76.7999 105.7 79.3999 104.4 80.9999C103.1 82.5999 101.3 83.3999 98.8 83.3999C96.3 83.3999 96.6 83.3999 95.4 83.0999C94.2 82.8999 93 82.6999 91.8 82.2999V80.3999C92.7 82.0999 93.5 84.0999 94.2 86.1999C94.9 88.2999 95.5 90.4999 95.9 92.6999C96.4 94.8999 96.7 96.9999 97 98.8999C97.2 100.9 97.4 102.5 97.4 103.8C97.4 107.3 96.7 110 95.2 111.9C93.7 113.8 91.4 114.8 88 114.8C84.6 114.8 82.7 114 81.2 112.3C79.7 110.6 78.9 108.1 78.9 104.7C78.9 101.3 79.1 101.2 79.4 98.9999C79.8 96.8999 80.3 94.6999 80.9 92.4999C81.5 90.2999 82.2 88.0999 83.1 85.9999C83.9 83.8999 84.7 82.0999 85.6 80.4999L85.9 82.1999C85.3 82.3999 84.5 82.5999 83.6 82.8999C82.7 83.0999 81.8 83.2999 80.9 83.3999C80 83.4999 79.2 83.5999 78.5 83.5999C75.8 83.5999 73.9 82.9999 72.7 81.6999C71.6 80.3999 71 78.5999 71 76.3999C71 74.1999 71.4 72.5999 72.3 71.0999C73.2 69.5999 74.6 68.2999 76.5 67.2999C78 66.4999 79.9 65.9999 82 65.5999C84.2 65.1999 86.6 64.9999 89.3 64.9999L89.6 64.8999Z" fill="#DAC665"/>
<path d="M122.6 114.5C119.1 114.5 116 113.7 113.3 112.1C110.7 110.5 108.6 108.2 107.2 105.3C105.8 102.3 105 98.7998 105 94.6998C105 90.5998 105.7 86.6998 107.2 83.4998C108.7 80.2998 110.7 77.7998 113.4 75.9998C116.1 74.1998 119.2 73.2998 122.8 73.2998C126.4 73.2998 129.9 74.1998 132.7 75.8998C135.5 77.5998 137.7 79.9998 139.3 83.0998C140.9 86.1998 141.7 89.7998 141.7 93.8998C141.7 97.9998 140.9 101.8 139.3 104.8C137.7 107.9 135.5 110.2 132.7 111.9C129.9 113.6 126.5 114.4 122.6 114.4V114.5ZM123.5 101.1C124.8 101.1 125.9 100.4 126.7 98.8998C127.5 97.4998 127.9 95.5998 127.9 93.1998C127.9 90.7998 127.5 88.8998 126.7 87.3998C125.9 85.8998 124.8 85.1998 123.5 85.1998C122.2 85.1998 121 85.8998 120.2 87.3998C119.4 88.7998 119 90.7998 119 93.1998C119 95.5998 119.4 97.4998 120.2 98.8998C121 100.3 122.1 101.1 123.5 101.1Z" fill="#D96B52"/>
<path d="M164.199 119.4C162.499 119.8 160.799 119.9 159.099 120C157.399 120 155.699 119.8 154.299 119.4C152.799 119 151.499 118.2 150.399 117.3C149.299 116.3 148.599 115 148.199 113.3C147.799 111.6 147.999 109.4 148.899 108C149.799 106.6 151.599 105.7 154.299 105.1C156.999 104.5 156.699 104.7 158.099 104.6C159.499 104.5 160.599 104.4 161.299 104.2C161.999 104 162.799 103.7 163.199 103.2C163.599 102.8 163.699 102.2 163.599 101.6C163.499 101 163.299 100.8 162.899 100.5C162.499 100.2 161.899 99.9998 161.099 99.7998C160.299 99.5998 159.299 99.4998 157.899 99.2998C155.099 99.0998 152.899 98.5998 150.999 97.8998C149.199 97.1998 147.799 96.1998 146.699 94.8998C145.699 93.5998 144.899 91.7998 144.499 89.6998C144.099 87.5998 143.999 84.9998 144.499 82.9998C144.999 80.9998 145.799 79.1998 146.899 77.6998C147.999 76.1998 149.399 74.7998 150.999 73.6998C152.599 72.5998 154.199 71.5998 155.899 70.8998C157.599 70.1998 159.299 69.5998 160.899 69.2998C164.499 68.4998 167.399 68.6998 169.899 69.6998C172.299 70.6998 173.799 72.6998 174.499 75.5998C174.999 77.8998 174.699 79.8998 173.499 81.5998C172.399 83.2998 170.299 84.4998 167.199 85.1998C164.099 85.8998 165.499 85.4998 164.399 85.5998C163.299 85.6998 162.399 85.7998 161.399 85.8998C160.499 85.8998 159.699 86.0998 159.099 86.1998C158.299 86.3998 157.699 86.5998 157.299 86.8998C156.999 87.1998 156.799 87.5998 156.899 88.0998C156.999 88.5998 157.199 88.7998 157.599 89.0998C157.999 89.3998 158.499 89.5998 159.399 89.7998C160.199 89.9998 161.299 90.0998 162.699 90.1998C166.099 90.4998 168.899 91.0998 170.999 91.9998C173.099 92.8998 174.799 94.0998 175.899 95.5998C176.999 97.0998 177.799 98.8998 178.299 101C178.899 103.9 178.699 106.7 177.799 109.2C176.799 111.7 175.199 113.9 172.799 115.7C170.499 117.5 167.599 118.7 164.199 119.5V119.4Z" fill="#F7E3CF"/>
<path d="M203.599 111.4C198.899 112.4 195.099 112.5 191.999 111.6C188.899 110.7 186.499 109.1 184.599 106.6C182.799 104.1 181.499 101 180.699 97.2999C179.699 92.4999 179.699 88.2999 180.699 84.4999C181.699 80.7999 183.599 77.6999 186.199 75.1999C188.799 72.7999 192.099 71.0999 195.999 70.2999C200.599 69.2999 204.199 69.5999 206.799 71.2999C209.399 72.8999 210.999 75.3999 211.699 78.7999C212.299 81.4999 212.099 83.8999 211.199 86.1999C210.299 88.4999 208.799 90.3999 206.699 91.8999C204.599 93.3999 202.099 94.4999 198.999 95.1999C197.799 95.4999 196.599 95.5999 195.399 95.5999C194.199 95.5999 193.099 95.5999 192.099 95.3999L192.999 91.7999C192.999 92.8999 193.299 93.8999 193.499 94.9999C193.899 96.8999 194.699 98.0999 195.899 98.6999C197.099 99.2999 198.599 99.3999 200.499 98.9999C202.399 98.5999 204.099 97.9999 205.299 97.1999C206.499 96.3999 207.599 95.6999 208.499 94.8999C209.399 94.1999 210.399 93.6999 211.499 93.3999C212.599 93.0999 213.099 93.2999 214.099 93.3999C214.999 93.5999 215.799 94.0999 216.599 94.7999C217.299 95.4999 217.899 96.5999 218.199 97.9999C218.599 99.7999 218.299 101.6 217.299 103.3C216.299 105 214.699 106.6 212.399 107.9C210.099 109.3 207.199 110.4 203.499 111.1L203.599 111.4ZM195.899 88.9999C197.399 88.6999 198.699 87.7999 199.599 86.3999C200.499 84.9999 200.799 83.3999 200.399 81.6999C200.199 80.6999 199.799 79.9999 199.099 79.3999C198.399 78.7999 197.599 78.6999 196.699 78.8999C195.799 79.0999 194.699 79.5999 193.999 80.3999C193.199 81.1999 192.699 82.0999 192.299 83.1999C191.999 84.2999 191.899 85.3999 192.099 86.4999C192.299 87.5999 192.799 88.1999 193.399 88.6999C194.099 89.0999 194.899 89.1999 195.799 88.9999H195.899Z" fill="#F7E3CF"/>
<path d="M240.599 103.5C235.899 104.5 232.099 104.6 228.999 103.7C225.899 102.8 223.499 101.2 221.599 98.6999C219.799 96.1999 218.499 93.0999 217.699 89.3999C216.699 84.5999 216.699 80.3999 217.699 76.5999C218.699 72.8999 220.599 69.7999 223.199 67.2999C225.799 64.8999 229.099 63.1999 232.999 62.3999C236.899 61.5999 241.199 61.6999 243.799 63.3999C246.399 64.9999 247.999 67.4999 248.699 70.8999C249.399 74.2999 249.099 75.9999 248.199 78.2999C247.299 80.5999 245.799 82.4999 243.699 83.9999C241.599 85.4999 239.099 86.5999 235.999 87.2999C234.799 87.5999 233.599 87.6999 232.399 87.6999C231.199 87.6999 230.099 87.6999 229.099 87.4999L229.999 83.8999C229.999 84.9999 230.299 85.9999 230.499 87.0999C230.899 88.9999 231.699 90.1999 232.899 90.7999C234.099 91.3999 235.599 91.4999 237.499 91.0999C239.399 90.6999 241.099 90.0999 242.299 89.2999C243.499 88.4999 244.599 87.7999 245.499 86.9999C246.399 86.2999 247.399 85.7999 248.499 85.4999C249.599 85.1999 250.099 85.3999 251.099 85.4999C251.999 85.6999 252.799 86.1999 253.599 86.8999C254.299 87.5999 254.899 88.6999 255.199 90.0999C255.499 91.4999 255.299 93.6999 254.299 95.3999C253.299 97.0999 251.699 98.6999 249.399 99.9999C247.099 101.4 244.199 102.5 240.499 103.2L240.599 103.5ZM232.899 81.1999C234.399 80.8999 235.699 79.9999 236.599 78.5999C237.499 77.1999 237.799 75.5999 237.399 73.8999C236.999 72.1999 236.799 72.1999 236.099 71.5999C235.399 70.9999 234.599 70.8999 233.699 71.0999C232.799 71.2999 231.699 71.7999 230.999 72.5999C230.199 73.3999 229.699 74.2999 229.299 75.3999C228.999 76.4999 228.899 77.5999 229.099 78.6999C229.299 79.7999 229.799 80.3999 230.399 80.8999C231.099 81.2999 231.899 81.3999 232.799 81.1999H232.899Z" fill="#F7E3CF"/>
<path d="M135.398 85.1C136.398 81 134.998 76.7 136.098 72.7C137.098 68.8 140.498 65.4 144.598 63.7C148.798 61.9 153.698 61.7 158.198 62.7" stroke="#D96B52" stroke-width="5.5" stroke-miterlimit="10"/>
</svg>
