<?xml version="1.0" encoding="UTF-8"?>
<svg xmlns="http://www.w3.org/2000/svg" version="1.1" viewBox="0 0 595.3 841.9">
  <defs>
    <style>
      .cls-1 {
        fill: #f7e3cf;
      }

      .cls-2 {
        fill: #dac665;
      }

      .cls-3 {
        fill: #d96b52;
      }

      .cls-4 {
        fill: none;
        stroke: #d96b52;
        stroke-miterlimit: 10;
        stroke-width: 5.5px;
      }
    </style>
  </defs>
  <!-- Generator: Adobe Illustrator 28.7.10, SVG Export Plug-In . SVG Version: 1.2.0 Build 236)  -->
  <g>
    <g id="Calque_1">
      <g>
        <g>
          <path class="cls-1" d="M183.8,361.7c2.5-.9,4.7-1.6,6.5-2,1.9-.4,3.5-.6,4.9-.6,2.2,0,3.9.6,5.1,1.7,1.2,1.1,2.1,2.5,2.7,4.3s1,4.4.4,6.3c-.6,1.9-2.1,3.3-4.4,4.2s-2.1.7-3.2.9c-1.2.2-2.4.4-3.7.5l-.7-1.8c1.5,1.3,2.9,2.9,4.3,4.6,1.4,1.7,2.7,3.6,3.9,5.5,1.2,1.9,2.3,3.7,3.2,5.4.9,1.7,1.6,3.2,2.1,4.5,1.2,3.3,1.5,6.1.8,8.4-.7,2.3-2.6,4-5.7,5.2s-5.2,1.1-7.2,0c-2-1-3.6-3.1-4.8-6.3s-1.1-3.4-1.5-5.5c-.4-2.1-.7-4.3-.9-6.6-.2-2.3-.3-4.6-.3-6.8,0-2.2.2-4.2.4-6l.8,1.5c-.5.4-1.1.9-1.9,1.4-.8.5-1.5,1-2.3,1.4-.8.4-1.5.8-2.1,1-2.5,1-4.5,1-6.1.2-1.5-.8-2.7-2.3-3.5-4.4s-.9-3.7-.7-5.5,1.1-3.4,2.6-5c1.2-1.3,2.7-2.4,4.6-3.6,1.9-1.1,4.1-2.2,6.7-3.1Z"/>
          <path class="cls-1" d="M207.5,375.8c-1.8-4.9-2.6-8.6-2.3-11.2.3-2.6,1.5-4.3,3.6-5.1s2.6-.5,3.7.1c1.1.6,2.1,1.5,3,2.7.9,1.2,1.6,2.4,2.1,3.8h-.4c-.1-2.5.2-4.9,1-7.1.8-2.2,2.2-3.7,4.3-4.4s4.8-.6,6.8,1.1c2,1.7,3.6,4.1,4.8,7.4s2.1,7.4,1.5,9.6c-.6,2.2-2,3.7-4.2,4.5s-2.8.5-3.9-.2c-1.1-.7-2-2.2-2.7-4.4-.5-1.6-1-2.6-1.4-3.2-.4-.5-.8-.7-1.2-.6-.5.2-.8.7-.8,1.5,0,.8.3,1.8.7,3s.8,1.9,1.5,3.1c.7,1.2,1.5,2.5,2.3,4,.8,1.4,1.6,2.9,2.4,4.3.8,1.4,1.4,2.8,1.9,4,1,2.6,1.1,4.7.3,6.2-.8,1.5-2.2,2.7-4.4,3.5s-3.9.8-5.5.2c-1.7-.6-3.2-2.1-4.6-4.4-.8-1.4-1.8-3.2-2.9-5.4-1.1-2.2-2.2-4.4-3.2-6.8-1-2.4-1.9-4.5-2.6-6.4Z"/>
          <path class="cls-1" d="M258.8,400.5c-3.2,1.2-5.5,0-6.9-3.5s-.8-3.5-.7-5.7c.1-2.3.6-4.6,1.3-7.1.8-2.5,1.8-4.9,3.1-7.1l.3,1c-6-2.5-10.7-5.3-14.4-8.2-3.6-2.9-6.2-6.3-7.6-10.1s-.9-4.1-.3-5.7c.7-1.6,2-2.8,3.9-3.5,2.9-1.1,6-.3,9.4,2.4,3.3,2.7,6.7,7.1,10.1,13.3h.3c-1.9-7.6-2.6-13.4-2.1-17.4.5-4,2-6.5,4.4-7.4s3.1-.5,4.4.3c1.3.8,2.3,2.3,3.1,4.4s1,3.1,1.3,5.2c.4,2.1.6,4.4.8,6.9.1,2.6.2,5.3,0,8.2,0,2.9-.3,5.8-.7,8.7-1,8-2.3,14-3.8,18-1.5,4-3.5,6.5-6,7.5Z"/>
        </g>
        <path class="cls-2" d="M282.4,358.6c1.7,0,3.2.4,4.5,1.2,1.4.8,2.7,2.3,4,4.4,1.3,2.1,2.6,5,4,8.6,1.3,3.7,2.8,8.3,4.4,14h.3c-.3-1.6-.5-3.3-.8-5.1-.2-1.8-.5-3.6-.6-5.4-.2-1.8-.3-3.5-.4-5.1-.1-1.6-.2-2.9-.2-4.1,0-3.6.6-6.3,1.7-7.9,1.2-1.7,2.8-2.5,5-2.5s2.9.4,3.9,1.2c1,.8,1.8,2,2.5,3.5,1.1,2.4,1.8,5.6,2.3,9.7.4,4.1.6,8.8.6,14.2s-.2,8.6-.6,11.6c-.4,3-1.2,5.2-2.3,6.7-1.1,1.4-2.7,2.2-4.7,2.2s-2.6-.2-3.8-.6c-1.2-.4-2.3-1.3-3.4-2.5-1.1-1.2-2.3-3-3.5-5.3-1.2-2.3-2.5-5.3-3.8-9.1s-2.8-8.4-4.5-13.9h-.3c.4,1.8.8,3.9,1.1,6.3.3,2.4.6,4.8.8,7.3.2,2.5.3,4.7.3,6.8,0,4.4-.7,7.6-2,9.5-1.3,1.9-3.3,2.8-6.1,2.8s-5-1-6.3-2.9c-1.3-2-1.9-5-1.9-9s0-4.4.2-7c.1-2.6.3-5.3.5-8,.2-2.8.5-5.4.8-7.9.5-4.4,1.4-7.7,2.6-10,1.2-2.3,3-3.4,5.6-3.4Z"/>
        <path class="cls-3" d="M333.8,406.6c-3.5,0-6.6-.8-9.3-2.4-2.6-1.6-4.7-3.9-6.1-6.8-1.4-3-2.2-6.5-2.2-10.6s.7-8,2.2-11.2c1.5-3.2,3.5-5.7,6.2-7.5,2.7-1.8,5.8-2.7,9.4-2.7s7.1.9,9.9,2.6c2.8,1.7,5,4.1,6.6,7.2,1.6,3.1,2.4,6.7,2.4,10.8s-.8,7.9-2.4,10.9c-1.6,3.1-3.8,5.4-6.6,7.1-2.8,1.7-6.2,2.5-10.1,2.5ZM334.8,393.2c1.3,0,2.4-.7,3.2-2.2.8-1.4,1.2-3.3,1.2-5.7s-.4-4.3-1.2-5.8c-.8-1.5-1.9-2.2-3.2-2.2s-2.5.7-3.3,2.2c-.8,1.4-1.2,3.4-1.2,5.8s.4,4.3,1.2,5.7c.8,1.4,1.9,2.2,3.3,2.2Z"/>
        <path class="cls-2" d="M364.7,365.9h-1c-.2-2-.2-3.8.2-5.6.3-1.8,1.1-3.2,2.2-4.3s2.7-1.6,4.7-1.6,3.6.5,4.6,1.5c.9,1,1.4,2.5,1.4,4.3s-.5,4.3-1.6,6h-.9c1.4-1,3-1.4,4.7-1.4s3.7.5,5,1.5c1.3,1,1.9,2.8,1.9,5.2s-.7,4-2.2,5.2c-1.5,1.2-3.3,1.8-5.4,1.8s-1.5,0-2.3-.2c-.8-.1-1.6-.3-2.4-.6l.3-.7c.6,1.4,1.1,3,1.7,4.8.5,1.8,1,3.6,1.4,5.5.4,1.9.8,3.7,1,5.6.2,1.8.4,3.4.4,4.9,0,2.9-.7,5.1-2,6.8-1.3,1.7-3.4,2.5-6.1,2.5s-3.1-.3-4.3-1c-1.1-.7-2.1-1.6-2.7-2.7-.7-1.1-1.2-2.5-1.5-4-.3-1.5-.5-3.1-.5-4.8s.1-3.2.4-5.1c.2-1.9.6-3.9,1.1-6,.5-2.1,1.1-4,1.7-5.9l1,.7c-1.3,1.2-2.9,1.7-4.9,1.7s-4-.6-5.2-1.7c-1.2-1.1-1.9-2.9-1.9-5.3s.7-4.4,2-5.7c1.3-1.3,3.2-2,5.5-2s1.4,0,2,.2c.6.2,1.2.3,1.6.6Z"/>
        <path class="cls-2" d="M258.6,404.9c2.6,0,4.9.1,6.8.4,1.9.3,3.5.7,4.8,1.2,2.1.9,3.4,2,4.1,3.4.7,1.4,1,3.1,1,5s-.6,4.5-1.9,6.1c-1.3,1.6-3.1,2.4-5.6,2.4s-2.2,0-3.4-.3c-1.2-.2-2.4-.4-3.6-.8v-1.9c.9,1.7,1.7,3.7,2.4,5.8.7,2.1,1.3,4.3,1.7,6.5.5,2.2.8,4.3,1.1,6.2.2,2,.4,3.6.4,4.9,0,3.5-.7,6.2-2.2,8.1-1.5,1.9-3.8,2.9-7.2,2.9s-5.3-.8-6.8-2.5c-1.5-1.7-2.3-4.2-2.3-7.6s.2-3.5.5-5.7c.4-2.1.9-4.3,1.5-6.5.6-2.2,1.3-4.4,2.2-6.5.8-2.1,1.6-3.9,2.5-5.5l.3,1.7c-.6.2-1.4.4-2.3.7-.9.2-1.8.4-2.7.5-.9.1-1.7.2-2.4.2-2.7,0-4.6-.6-5.8-1.9-1.1-1.3-1.7-3.1-1.7-5.3s.4-3.8,1.3-5.3,2.3-2.8,4.2-3.8c1.5-.8,3.4-1.3,5.5-1.7,2.2-.4,4.6-.6,7.3-.6Z"/>
        <path class="cls-3" d="M291.6,454.5c-3.5,0-6.6-.8-9.3-2.4-2.6-1.6-4.7-3.9-6.1-6.8-1.4-3-2.2-6.5-2.2-10.6s.7-8,2.2-11.2c1.5-3.2,3.5-5.7,6.2-7.5,2.7-1.8,5.8-2.7,9.4-2.7s7.1.9,9.9,2.6c2.8,1.7,5,4.1,6.6,7.2,1.6,3.1,2.4,6.7,2.4,10.8s-.8,7.9-2.4,10.9c-1.6,3.1-3.8,5.4-6.6,7.1-2.8,1.7-6.2,2.5-10.1,2.5ZM292.5,441.1c1.3,0,2.4-.7,3.2-2.2.8-1.4,1.2-3.3,1.2-5.7s-.4-4.3-1.2-5.8c-.8-1.5-1.9-2.2-3.2-2.2s-2.5.7-3.3,2.2c-.8,1.4-1.2,3.4-1.2,5.8s.4,4.3,1.2,5.7c.8,1.4,1.9,2.2,3.3,2.2Z"/>
        <g>
          <path class="cls-1" d="M333.2,459.4c-1.7.4-3.4.5-5.1.6-1.7,0-3.4-.2-4.8-.6-1.5-.4-2.8-1.2-3.9-2.1-1.1-1-1.8-2.3-2.2-4s-.2-3.9.7-5.3c.9-1.4,2.7-2.3,5.4-2.9s2.4-.4,3.8-.5c1.4-.1,2.5-.2,3.2-.4s1.5-.5,1.9-1c.4-.4.5-1,.4-1.6s-.3-.8-.7-1.1c-.4-.3-1-.5-1.8-.7-.8-.2-1.8-.3-3.2-.5-2.8-.2-5-.7-6.9-1.4-1.8-.7-3.2-1.7-4.3-3-1-1.3-1.8-3.1-2.2-5.2s-.5-4.7,0-6.7c.5-2,1.3-3.8,2.4-5.3,1.1-1.5,2.5-2.9,4.1-4,1.6-1.1,3.2-2.1,4.9-2.8,1.7-.7,3.4-1.3,5-1.6,3.6-.8,6.5-.6,9,.4,2.4,1,3.9,3,4.6,5.9.5,2.3.2,4.3-1,6-1.1,1.7-3.2,2.9-6.3,3.6s-1.7.3-2.8.4c-1.1.1-2,.2-3,.3-.9,0-1.7.2-2.3.3-.8.2-1.4.4-1.8.7-.3.3-.5.7-.4,1.2s.3.7.7,1c.4.3.9.5,1.8.7.8.2,1.9.3,3.3.4,3.4.3,6.2.9,8.3,1.8,2.1.9,3.8,2.1,4.9,3.6,1.1,1.5,1.9,3.3,2.4,5.4.6,2.9.4,5.7-.5,8.2-1,2.5-2.6,4.7-5,6.5-2.3,1.8-5.2,3-8.6,3.8Z"/>
          <path class="cls-1" d="M372.6,451.4c-4.7,1-8.5,1.1-11.6.2-3.1-.9-5.5-2.5-7.4-5-1.8-2.5-3.1-5.6-3.9-9.3-1-4.8-1-9,0-12.8,1-3.7,2.9-6.8,5.5-9.3,2.6-2.4,5.9-4.1,9.8-4.9,4.6-1,8.2-.7,10.8,1,2.6,1.6,4.2,4.1,4.9,7.5.6,2.7.4,5.1-.5,7.4-.9,2.3-2.4,4.2-4.5,5.7-2.1,1.5-4.6,2.6-7.7,3.3-1.2.3-2.4.4-3.6.4-1.2,0-2.3,0-3.3-.2l.9-3.6c0,1.1.3,2.1.5,3.2.4,1.9,1.2,3.1,2.4,3.7,1.2.6,2.7.7,4.6.3s3.6-1,4.8-1.8c1.2-.8,2.3-1.5,3.2-2.3.9-.7,1.9-1.2,3-1.5s1.6-.1,2.6,0c.9.2,1.7.7,2.5,1.4.7.7,1.3,1.8,1.6,3.2.4,1.8.1,3.6-.9,5.3-1,1.7-2.6,3.3-4.9,4.6-2.3,1.4-5.2,2.5-8.9,3.2ZM364.9,429c1.5-.3,2.8-1.2,3.7-2.6.9-1.4,1.2-3,.8-4.7-.2-1-.6-1.7-1.3-2.3s-1.5-.7-2.4-.5-2,.7-2.7,1.5c-.8.8-1.3,1.7-1.7,2.8-.3,1.1-.4,2.2-.2,3.3s.7,1.7,1.3,2.2c.7.4,1.5.5,2.4.3Z"/>
          <path class="cls-1" d="M409.6,443.5c-4.7,1-8.5,1.1-11.6.2-3.1-.9-5.5-2.5-7.4-5-1.8-2.5-3.1-5.6-3.9-9.3-1-4.8-1-9,0-12.8,1-3.7,2.9-6.8,5.5-9.3,2.6-2.4,5.9-4.1,9.8-4.9s8.2-.7,10.8,1c2.6,1.6,4.2,4.1,4.9,7.5s.4,5.1-.5,7.4c-.9,2.3-2.4,4.2-4.5,5.7-2.1,1.5-4.6,2.6-7.7,3.3-1.2.3-2.4.4-3.6.4-1.2,0-2.3,0-3.3-.2l.9-3.6c0,1.1.3,2.1.5,3.2.4,1.9,1.2,3.1,2.4,3.7,1.2.6,2.7.7,4.6.3s3.6-1,4.8-1.8c1.2-.8,2.3-1.5,3.2-2.3.9-.7,1.9-1.2,3-1.5s1.6-.1,2.6,0c.9.2,1.7.7,2.5,1.4.7.7,1.3,1.8,1.6,3.2s.1,3.6-.9,5.3c-1,1.7-2.6,3.3-4.9,4.6-2.3,1.4-5.2,2.5-8.9,3.2ZM401.9,421.2c1.5-.3,2.8-1.2,3.7-2.6.9-1.4,1.2-3,.8-4.7s-.6-1.7-1.3-2.3-1.5-.7-2.4-.5-2,.7-2.7,1.5c-.8.8-1.3,1.7-1.7,2.8-.3,1.1-.4,2.2-.2,3.3s.7,1.7,1.3,2.2c.7.4,1.5.5,2.4.3Z"/>
        </g>
        <path class="cls-4" d="M304.4,425.1c1-4.1-.4-8.4.7-12.4,1-3.9,4.4-7.3,8.5-9,4.2-1.8,9.1-2,13.6-1"/>
      </g>
    </g>
  </g>
</svg>