<svg width="43" height="43" viewBox="0 0 43 43" fill="none" xmlns="http://www.w3.org/2000/svg">
<circle cx="21.5" cy="21.5" r="17.5" fill="white"/>
<path d="M33.5232 21.6211L35.0256 20.1188C35.2231 19.9215 35.3797 19.6872 35.4866 19.4294C35.5935 19.1715 35.6486 18.8952 35.6487 18.6161C35.6488 18.3369 35.5939 18.0605 35.4872 17.8026C35.3805 17.5447 35.224 17.3104 35.0267 17.1129C34.8294 16.9155 34.5951 16.7589 34.3373 16.652C34.0795 16.5451 33.8031 16.49 33.524 16.4899C33.2449 16.4898 32.9685 16.5447 32.7106 16.6514C32.4527 16.7581 32.2183 16.9146 32.0209 17.1119L30.5185 18.6164L29.0161 17.1119C28.6174 16.7134 28.0767 16.4897 27.513 16.4899C26.9493 16.4901 26.4088 16.7142 26.0103 17.1129C25.6119 17.5117 25.3881 18.0524 25.3883 18.6161C25.3885 19.1798 25.6126 19.7203 26.0114 20.1188L27.5137 21.6211L26.0114 23.1235C25.6243 23.5243 25.4101 24.0611 25.4149 24.6182C25.4198 25.1754 25.6433 25.7084 26.0373 26.1024C26.4313 26.4964 26.9642 26.7198 27.5214 26.7247C28.0786 26.7295 28.6153 26.5153 29.0161 26.1283L30.5185 24.6259L32.0209 26.1283C32.4217 26.5153 32.9584 26.7295 33.5156 26.7247C34.0728 26.7198 34.6057 26.4964 34.9997 26.1024C35.3937 25.7084 35.6172 25.1754 35.6221 24.6182C35.6269 24.0611 35.4127 23.5243 35.0256 23.1235L33.5232 21.6211ZM21.5 42.75C9.76363 42.75 0.25 33.2364 0.25 21.5C0.25 9.76363 9.76363 0.25 21.5 0.25C33.2364 0.25 42.75 9.76363 42.75 21.5C42.75 33.2364 33.2364 42.75 21.5 42.75ZM11.4743 28.4849H13.6099L17.4837 32.1186C18.2718 32.8565 19.3112 33.2667 20.3907 33.2661H20.8243C21.726 33.2661 22.5908 32.9079 23.2284 32.2703C23.866 31.6327 24.2242 30.7679 24.2242 29.8661V13.2911C24.2242 12.3894 23.866 11.5246 23.2284 10.887C22.5908 10.2493 21.726 9.89113 20.8243 9.89113H20.3907C19.3109 9.8911 18.2715 10.3021 17.4837 11.0408L13.6099 14.6745H11.4743C10.3471 14.6745 9.26608 15.1223 8.46905 15.9193C7.67202 16.7163 7.22425 17.7973 7.22425 18.9245V24.237C7.22425 25.3642 7.67202 26.4452 8.46905 27.2422C9.26608 28.0392 10.3471 28.487 11.4743 28.487V28.4849ZM15.2908 18.9224L19.9742 14.53V28.6273L15.2908 24.2349H11.4743V18.9224H15.2908Z" fill="#D9C667"/>
</svg>
