<svg width="45" height="45" viewBox="0 0 45 45" fill="none" xmlns="http://www.w3.org/2000/svg">
<circle cx="22.5" cy="22.5" r="22.5" fill="#D9C667"/>
<path d="M9 26.3839V18.6151C9 17.8617 9.58801 17.2501 10.3125 17.2501H15.0192C15.1929 17.2495 15.3647 17.2137 15.5241 17.1449C15.6836 17.0761 15.8275 16.9757 15.9472 16.8498L19.8847 12.403C20.7116 11.5419 22.1252 12.1523 22.1252 13.369V31.6313C22.1252 32.8572 20.6945 33.4623 19.8729 32.5842L15.9485 28.1624C15.8285 28.0328 15.6831 27.9294 15.5215 27.8585C15.3598 27.7876 15.1852 27.7508 15.0087 27.7502H10.3125C9.58801 27.7502 9 27.1386 9 26.3839Z" stroke="white" stroke-width="3" stroke-linecap="round" stroke-linejoin="round"/>
<path d="M32 18V23M32 23V28M32 23H37M32 23H27" stroke="white" stroke-width="3" stroke-linecap="round"/>
</svg>
