<svg width="44" height="44" viewBox="0 0 44 44" fill="none" xmlns="http://www.w3.org/2000/svg">
<circle cx="21.5" cy="21.5" r="17.5" fill="white"/>
<path d="M21.9999 43.6666C10.0334 43.6666 0.333252 33.9665 0.333252 22C0.333252 10.0335 10.0334 0.333313 21.9999 0.333313C33.9664 0.333313 43.6666 10.0335 43.6666 22C43.6666 33.9665 33.9664 43.6666 21.9999 43.6666ZM13.4156 28.9983H15.5931L19.5429 32.7033C20.3459 33.4551 21.4048 33.8734 22.5047 33.8733H22.9489C23.8683 33.8733 24.7501 33.5081 25.4002 32.8579C26.0503 32.2078 26.4156 31.3261 26.4156 30.4066V13.5066C26.4156 12.5872 26.0503 11.7055 25.4002 11.0553C24.7501 10.4052 23.8683 10.04 22.9489 10.04H22.5047C21.4045 10.0405 20.3456 10.4596 19.5429 11.2121L15.5931 14.9171H13.4156C12.2663 14.9171 11.1641 15.3737 10.3515 16.1863C9.5388 16.999 9.08225 18.1012 9.08225 19.2505V24.6671C9.08225 25.8164 9.5388 26.9186 10.3515 27.7313C11.1641 28.5439 12.2663 29.0005 13.4156 29.0005V28.9983ZM30.0209 19.8116C30.5956 19.8116 31.1467 20.0399 31.553 20.4462C31.9593 20.8526 32.1876 21.4037 32.1876 21.9783C32.1876 22.5529 31.9593 23.104 31.553 23.5104C31.1467 23.9167 30.5956 24.145 30.0209 24.145C29.4463 24.145 28.8952 24.3733 28.4889 24.7796C28.0825 25.1859 27.8542 25.737 27.8542 26.3116C27.8542 26.8863 28.0825 27.4374 28.4889 27.8437C28.8952 28.25 29.4463 28.4783 30.0209 28.4783C31.7448 28.4783 33.3981 27.7935 34.6171 26.5745C35.8361 25.3555 36.5209 23.7022 36.5209 21.9783C36.5209 20.2544 35.8361 18.6011 34.6171 17.3821C33.3981 16.1631 31.7448 15.4783 30.0209 15.4783C29.4463 15.4783 28.8952 15.7066 28.4889 16.1129C28.0825 16.5192 27.8542 17.0703 27.8542 17.645C27.8542 18.2196 28.0825 18.7707 28.4889 19.177C28.8952 19.5834 29.4463 19.8116 30.0209 19.8116ZM17.3048 19.2483L22.0823 14.772V29.1435L17.3048 24.665H13.4156V19.2483H17.3048Z" fill="#D9C667"/>
</svg>
